<svg xmlns="http://www.w3.org/2000/svg" viewBox="156 158 298 252" fill="currentColor"><path fill-rule="evenodd" clip-rule="evenodd" d="M289.705 170.809C289.493 168.604 288.966 166.44 288.139 164.383C287.621 163.06 286.791 161.881 285.718 160.942C284.834 160.247 283.737 159.874 282.609 159.885H171.495C167.558 159.766 163.716 161.095 160.705 163.616C157.783 166.104 156.322 170.16 156.322 175.784V400.541C156.291 401.869 156.743 403.164 157.595 404.189C158.733 405.401 160.173 406.295 161.769 406.78C164.324 407.604 166.963 408.146 169.637 408.397C173.846 408.825 178.075 409.019 182.305 408.977C185.946 409.032 189.586 408.838 193.2 408.397C195.872 408.13 198.509 407.589 201.068 406.78C202.679 406.328 204.127 405.429 205.242 404.189C206.026 403.134 206.437 401.851 206.411 400.541V308.963H277.558C278.686 308.975 279.784 308.602 280.668 307.906C281.754 306.939 282.585 305.722 283.089 304.361C283.892 302.333 284.418 300.206 284.654 298.039C285.004 294.859 285.164 291.662 285.134 288.463C285.161 284.94 285.001 281.418 284.654 277.912C284.445 275.774 283.917 273.678 283.089 271.694C282.573 270.422 281.74 269.302 280.668 268.439C279.759 267.802 278.67 267.468 277.558 267.486H206.39V201.176H282.588C283.73 201.186 284.836 200.78 285.698 200.036C286.742 199.073 287.567 197.9 288.118 196.595C288.946 194.61 289.474 192.515 289.684 190.377C290.032 187.162 290.192 183.93 290.164 180.696C290.202 177.395 290.048 174.093 289.705 170.809Z"/><path fill-rule="evenodd" clip-rule="evenodd" d="M453.173 378C452.918 375.833 452.348 373.7 451.475 371.651C450.91 370.297 449.914 369.101 448.597 368.195C447.433 367.481 446.025 367.108 444.587 367.133H378.905V166.1C378.912 164.83 378.39 163.599 377.429 162.623C376.092 161.424 374.389 160.56 372.509 160.125C369.524 159.366 366.459 158.85 363.358 158.585C358.561 158.167 353.74 157.979 348.918 158.023C344.472 157.98 340.027 158.168 335.609 158.585C332.458 158.844 329.344 159.36 326.31 160.125C324.428 160.555 322.724 161.42 321.39 162.623C320.43 163.599 319.907 164.83 319.914 166.1V393.01C319.914 398.651 321.612 402.71 325.056 405.229C328.605 407.761 333.134 409.096 337.774 408.976H444.587C446.044 408.995 447.462 408.583 448.597 407.811C449.932 406.799 450.925 405.506 451.475 404.064C452.329 401.945 452.898 399.753 453.173 397.527C453.96 391.063 453.96 384.547 453.173 378.083V378Z"/></svg>