<svg xmlns="http://www.w3.org/2000/svg" style="display:none">
<symbol id="habr" viewBox="36 30 128 134" fill="currentColor"><path fill="currentColor" d="m39.074 81.907.946 1.413c-1.892-.059-3.883-.243-4.269-1.053q.011-.06.026-.12c1.063-.28 1.975-.297 3.297-.24m10.098 4.291c.15.466.306.93.457 1.394l-1.07.046q.13-.712.254-1.424zm3.656 10.179c-.948.874-1.685 1.457-2.249 2.774-.786-.639-1.19-1.912-1.442-3.336-.274-1.547-.37-3.272-.578-4.561q.034-.328.066-.658l1.101-.08 2.805 5.299zM51.405 83.32q.178-1.192.366-2.382.037-.24.07-.477.18-.008.358-.02-.402 1.44-.794 2.879m-.764-12.953 5.033 1.364q-.012.114-.02.226c-2.344 1.72-4.51 2.484-5.672 5.606l.44-6.955q.108-.12.22-.24m4.7-7.196c-.33 3.233.132 4.667.697 6.672.898.64 1.25 1.021.959 1.963-1.512-.745-3.108-1.527-5.42-1.406l-.172-.191c.652-2.553 1.914-4.119 2.893-6.14q.521-.45 1.044-.898m7.23-4.302.218-.016c-.692 2.385-.972 7.89-2.187 10.075-2.865-1.356-2.81-7.225.4-9.544zM59.9 76.545l2.416 2.618c-.947 2.913-2.746 5.107-3.503 8.476-.478-.036-.952-.072-1.43-.106-1.216-3.399 1.834-8.932 2.352-11.408l2.236.259q.412 1.046.82 2.093zm6.608-17.69c-.242 2.825.38 4.288.553 6.482l-4.27 2.153c.358-3.604 1.088-5.979 2.084-8.514zm1.66-4.298.316-.02q-.234.69-.481 1.378l-.942.061q.36-.427.729-.855zm.316 13.188q-2.133 1.312-4.27 2.623c.087-1.59 2.114-3.723 3.806-4.318.13.071.256.142.388.212q.037.742.076 1.483m2.846-9.919-.77 4.379-.798.5q-.21.235-.422.467c-.775-1.085-.966-3.742-.802-5.757zm2.846-3.285-.017.142q-.548.521-1.091 1.042c-.725.278-.816.266-1.738.236.125-.475.257-.95.387-1.424zm2.846-5.761-1.27 2.878-4.422-.32.022-.232c1.818-.838 3.41-1.83 5.67-2.326m-2.299 7.47.47-.274.406 1.44-1.423-.278zm3.722 4.26c-1.695.657-4.038.476-5.393 1.223q-.147-.865-.299-1.73.447-.574.886-1.149 2.154.843 4.303 1.687.251-.014.503-.032m-3.64 2.589-1.932.073c-.044-.203-.078-.406-.12-.61 1.36-.552 3.643-.605 5.692-.83l-2.16 1.188zm5.063 0c-1.63.403-3.191 1.835-4.257 2.951-.208-1.3 2.302-3.6 3.505-4.317.534.474.59.424.752 1.365M82.713 45.9l-.022.228-1.71 1.026-2.538.185q.015-.114.025-.226zm-2.303 4.317q-.269-.404-.544-.806c1.282-1.08 4.12-.485 5.693-.326zm12.735-4.239c2.38.194 4.553.757 6.204 1.785l.44-.026-.264.37-2.275.671q-2.051-.292-4.105-.588l-9.01-1.288.024-.179c2.913-.673 6.1-.98 8.986-.745m9.468-.759-.505.68a6.9 6.9 0 0 1-3.742-1.439q2.134.27 4.27.543zm7.579 5.32 1.181-.448c.409.351.814.704 1.224 1.055-.165 1.196-1.326 2.18-2.214 3.347l-.682.042c-1.858-3.063-4.2-6.42-8.309-7.6l-.179-.367 1.66-.668c2.79.97 5.116 2.445 7.708 3.296.332.804.229.533-.389 1.344m3.435 6.822-.323-.319c-.237.014-.471.035-.707.052q.585-.56 1.178-1.12c-.054.462-.098.927-.148 1.387m1.255 15.884c1.925 1.662 2.418 4.067 1.616 7.196-.827-1.854-1.649-3.708-2.478-5.563.274-.411.542-.824.812-1.237q.024-.199.05-.396m.561-12.937c-.009.09-.013.178-.023.267l-1.012 1.156q-.193-.384-.388-.767c.606-1.085.17-.502.965-.617q.228-.021.458-.039m1.183-.016c1.503.555 3.011 1.11 4.51 1.665-.01.15-.027.301-.041.451q-.568.383-1.138.762l-4.514-1.665q.022-.225.042-.451.57-.383 1.141-.762m8.779 5.756q-1.249-.83-2.499-1.656l-.347-.67c1.084-.663.927-.63 2.075-.41q.382 1.367.771 2.736m1.423-.547-.5.547c-.61-.31-.717-.708-.923-1.439l1.304.565zm-1.063-4.116c-.125.01-.239.016-.36.026q.585-.558 1.184-1.12c-.276.366-.557.729-.824 1.094m6.755 7.24q-.35.151-.694.302-1.91-1.067-3.81-2.135-.595-.804-1.188-1.613c1.974-1.456 2.043.23 3.904 1.148a565 565 0 0 0 1.788 2.298m1.423 1.266-1.423-.514q.43-.223.858-.45zm-1.731 2.32c.514 1.037.51.742 1.731.59q-1.091.941-2.187 1.883a2479 2479 0 0 0-2.082-3.968q.01-.125.026-.248c1.535-.329 2.031.225 3.53.446l.581.926q-.796.188-1.599.372m.308 2.583c.949-.518 1.896-1.032 2.846-1.55-.57 1.28-1.31 1.94-2.191 2.879q-.325-.665-.655-1.33m5.693 5.492c-.771.666-1.271.88-2.733.999q.588.064 1.174.13-.013.104-.023.208l-4.009 1.696c-.037-1.712-.067-3.423-.102-5.134.92-1.087 1.845-2.174 2.765-3.262.171-.08.336-.159.504-.24.807 1.869 1.619 3.738 2.424 5.603m-1.424-7.87c7.858-2.19 6.34 1.973 2.833 5.146q-1.42-2.574-2.833-5.146m7.116.829c-2.895 13.575-3.454 14.315-13.692 20.148q-.267-.404-.539-.808l.362-1.514c6.677-1.902 10.475-5.389 10.079-13.293q1.674-2.144 3.346-4.289zm.348 0q-.17-.704-.348-1.408l1.066-.032zm-17.425 13.2q.048-.75.101-1.499.04-.642.085-1.286l.988-.325q.071-.007.14-.016c.277 1.697.002 2.957-.567 4.318-.476-.304-.57-.434-.747-1.191m-5.692 12.593.022-.248q.936-2.23 1.867-4.457.194-.471.394-.94l3.286.221q.072.37.101.72c.144 1.692-.443 3.047-1.05 4.816zm1.423 5.778q.019-1.114.04-2.226l.054-.561 2.401.179.351-.027q-.825 1.362-1.644 2.726zm-1.409-9.313.145-.075 1.139-.583.125-.012q-.088.296-.172.596l-.658 2.282c-.196-.676-.397-1.354-.593-2.031q.005-.09.014-.177m-2.22 7.166-.641-.64c.627.434.218.01.641.64m-3.487-1.712c.799-.504 1.665-.349 2.846-.331l-.349 1.149c-.973.388-1.111.245-2.218.132q-.136-.474-.279-.95m1.743 5.389q.554 1.298 1.103 2.594l-2.557 1.724c-.761-1.038.071-3.958 1.454-4.318m-2.809-9.032q-.173.011-.357.026.236-.535.467-1.068c-.033.345-.073.694-.11 1.042m4.098.397q-.091-.06-.186-.119c.211-.437.415-.874.626-1.312l.207-.008c.195.46.395.92.591 1.382zm9.853-18.71q-.036-.243-.077-.487c.375-.455.614-.738 1.258-.952q.085.424.165.852-.414.273-.827.55zm-.077 3.515c-.257.339-.713.53-1.038.803q-.195-3.597-.385-7.196zm-2.611 9.645c.942-.521 1.074-.04 1.188 1.232-.952-.001-1.896-.005-2.846-.007l.046-.443q.805-.392 1.612-.782m-1.396-3.978q.319-.273.643-.546l.518.929c-.081.17-.159.34-.242.51q-.589-.067-1.181-.137.133-.378.262-.756m-.262 3.817q-.74.697-1.484 1.393-.484-.079-.966-.16l-.396.039c.232-.44.46-.88.693-1.318q1.076.025 2.153.046m-5.371-.817c-.592-.413-.162-.357-.276-.668zm4.488-6.425-4.81-2.487c.224-3.29.629-7.072.302-10.466 3.709 1.344 7.032 7.357 4.508 12.953m-3.386 0c1.183.62 1.115 1.194 2.756 1.693.287 1.067-.149 1.487-.831 2.625l-1.743-.071c-.361-1.895.029-2.984-.182-4.247m.325 9.303c-.596-.411-.169-.357-.279-.668q.135.338.279.668m9.636-13.852.014-.264 1.283-.944c.226 1.474.141 3.927-.196 5.757-.757-.594-.897-3.094-1.101-4.55m0 4.548q.434-.72.86-1.438-.257.704-.5 1.412-.18.016-.36.026m8.298-4.303q.124-.008.24-.013c.068 5.512-3.342 6.515-7.826 8.59l-.712.045q1.394-2.888 2.793-5.775 2.754-1.422 5.505-2.847m-8.434-10.77q.07.212.136.427l-.356.255q-.535-.72-1.067-1.44zm-1.287 2.393c.019-.083.025-.17.039-.25l.314-.022q.537.72 1.07 1.44c-.823-.395-.959-.49-1.423-1.168m1.423 3.678-1.921 1.807q-2.062-2.983-4.121-5.967c-1.777-1.541-3.563-3.085-5.343-4.627q.594-.46 1.178-.92c2.585 1.117 7.11 3.244 8.021 5.898.297.863-.724 1.576-.029 2.298.825.855 1.651.246 2.215 1.511m-12.011 9.003.434.17q.095 2.075.192 4.148l-.666-.154c-.625-.46-1.063-2.604-.49-3.535zm-3.152 7.214.459-.018c.157.375.318.75.473 1.126q-.363.143-.732.285l-.691.028q.25-.71.491-1.42m-1.301 23.01-.613-2.101 2.63-.763c.07-.003.145-.009.216-.015a3 3 0 0 0-.022.197zm-2.036-5.757c.259-.843.449-.972.919-1.439l.396.15.108.373q-.438.429-.875.86-.275.026-.548.056m.669 1.439-.669-.734c.473-.235.951-.47 1.423-.705l-.37 1.415zm-1.499 6.532-.593-.488.439-.027 2.195-1.699q.105.866.212 1.731c-.557.381-1.121.766-1.682 1.147q-.284-.333-.571-.664m.108 16.479c-3.425.146-5.47-.725-8.274-.971l-3.198-6.318-.614-.633c5.377-.637 8.758-3.226 12.741-5.015 1.411 1.335 4.604 8.153 1.791 11.172-.668 1.032-1.425 1.134-2.446 1.765m-14.711-7.097q.64-.04 1.289-.083c1.938 1.296 3.258 3.621 4.183 5.757q-2.847-.819-5.693-1.642c.422-1.438.6-2.9.22-4.032m-4.089-5.433 6.408-1.846q5.041.494 10.085.984.09.256.183.507c-3.004 1.348-6.419 2.484-9.863 4.225-3.73.296-4.629-1.093-7.214-2.007.136-.623.27-1.241.401-1.863m-.401 6.781.128-1.248 2.454-.183c.201 1.086.417 1.692.114 2.879zm-2.846 2.255c.317-.178.636-.351.953-.528 1.17-.772 2.05.26 3.316.664q-.253.246-.504.496zm2.763-2.247a68 68 0 0 1-.926-.421l-.414-1.018 1.423.089zm-4.186 0q.712.612 1.423 1.217c-.003.754-.068.669-.238 1.662zm-3.691-5.396c1.335-.404 3.117-.315 5.114-.36l-1.858 1.439-3.834-.376zm-3.425-72.124c2.642-2.52 9.273-1.767 10.935-.167q.226-.019.45-.04c-2.212 2.056-5.634 2.294-7.737 4.328-1.647-1.096-3.01-1.798-3.648-4.12m14.536 4.12 1.118 1.268c-.997.058-2.045.117-3.088.205-2.356.2-4.681.55-6.307 1.392l-.21.014-.356-.55c1.993-1.012 4.167-1.825 6.873-2.166a22 22 0 0 1 1.76-.148zm5.544-7.195c1.839 1.844 4.588 2.932 5.536 5.757-3.864-1.791-9.798-1.765-12.808-4.613 2.656.564 4.91.355 7.272-1.144m1.267 10.074q2.644.363 5.278.722.21-.015.414-.034-2.114 1.815-4.233 3.63c-.664-1.334-.825-3.14-1.459-4.318m6.782 6.156-1.09-.166 1.423-.233zm-1.09-3.44q.651-.636 1.303-1.277c.042.48.078.96.12 1.44l-.944-.207c-.158.017-.321.029-.479.044m2.582 47.632-.624.025q-.271-.252-.535-.503.204-.273.412-.544l1.011-.393q-.133.706-.264 1.415m-1.134 2.624.524-.602.045-.558.829 1.315-1.423.124zm-.564 4.597q-.44-.53-.884-1.057l2.846-.383-1.356 1.398zm.539 4.317-2.846-.341 2.006-1.098q.422.717.84 1.439m-1.996-4.061.573.546c-.687.176-1.371.354-2.061.529l-2.208.108q1.536-.721 3.077-1.439zm-7.966-62.142c1.663.045 3.42.465 4.27 1.439-1.148-.114-3.208.071-3.729-.81-.176-.21-.36-.42-.54-.63m1.446 5.756c.812.71 1.097 1.544.949 2.879-1.254-.432-.926-1.8-.95-2.879m1.401 9.073q.02-.123.044-.245c2.835-.615 3.449.367 2.156 1.247-1.115-.152-1.626-.572-2.2-1.002m3.645 36.982.624.155-.023.199-1.4 1.085.582-1.423q.112-.01.217-.016m-.784-35.103 1.06-.877.348 1.44-1.423-.313zm4.254 38.485-3.438.894q-.416.02-.831.042.01-.073.022-.145c1.291-.251 2.116-.678 2.877-1.294l1.204.225q.084.138.166.278m-2.455-3.382-.391-.797.98-.642q.222.12.443.237l-.562 1.16zm-8.93 9.952q.847-.655 1.694-1.317l5.245.45.177.388-3.542 2.041c-1.313-.215-2.45-.798-3.13-1.593q-.22.017-.444.031m-2.635.123 2.635 1.439-4.269-.749zm-.21 2.938-.019.348q-.407.225-.81.451c-.2.023-.396.052-.595.075l.022-.346c.62-.823.515-.548 1.401-.528m-6.71-58.573a36 36 0 0 0-.406-.43c1.412-.77 3.642-1.134 5.836-1.312 1.807-.146 3.586-.168 4.858-.192q.346 2.158.69 4.318c-1.856-.204-3.635-.445-5.548-.533a29 29 0 0 0-4.962.181 218 218 0 0 0-.469-2.032M89.48 117.1q.173.304.348.607L89.493 119l-3.934.3c.421-1.285 1.05-1.902 1.726-2.878zm-4.852-4.996c-1.787-.098-4.241-1.406-4.762-2.878l5.693 1.447zm2-.076q-.535.04-1.07.076c.012-.112.028-.226.038-.341.395-.365.787-.734 1.182-1.098zm-3.916-52.63 1.732-.544 1.115 1.394-1.17.045q-.837-.448-1.677-.895m-.022 61.793-.268.943q-.21.018-.414.045-.359-.722-.719-1.44l1.423.146q-.012.152-.022.306m.792-6.208q1.662.334 3.319.67l.18.449-2.578 3.198-3.114-.457zm24.846-45.104.642-.941.233-.01 1.786.449.185.254-2 .736zm3.848-4.651-1.002-.618c1.022.374.434-.044 1.002.618m-.321 6.578q-.343-.288-.681-.577.71-.433 1.423-.862l-.742 1.44m-.681 10.075 2.212.547c.595.231.582.295.634.892-.951-.364-2.541-.614-2.846-1.44m.216-3.92.306-.398q.453.72.901 1.44l-1.423-.277zm-28.825 47.352.148.378-1.917.732-.93.073q.008-.097.02-.196.326-.512.654-1.022c.908-.419.929-.146 2.025.035m-4.122-72.216c1.244.917 1.562 2.057 1.373 5.756-.82-1.046-1.314-3.257-1.373-5.756m.82-2.879-.108 1.042-.712.052q.406-.545.82-1.094m-.82 1.44c-.036.346-.067.693-.108 1.04-.436-.082-.879-.163-1.315-.243l1.083-.772zm0 83.473q.351-3.664.704-7.327 2.494-.655 4.989-1.308-2.622 4.19-5.245 8.372-.224.135-.448.263m.352-19.693.765-.455c.699.828.072 2.017-.582 2.878-.552-.515-.612-.833-.467-1.999zm-4.62-.704q.821-1.313 1.639-2.63l2.63 1.54q-1.353 2.108-2.717 4.217c-.818-.724-1.318-1.792-1.553-3.127m0 11.271c.87-.796 1.748-1.591 2.62-2.387l1.243.111.405.672q-.16 1.048-.314 2.095zm-4.27-1.954 3.13-1.872q1.192.186 2.383.374l.18.327q-1.256 1.088-2.507 2.177c-1.255-.13-2.087-.462-2.74-1.031zm-.415-2.781 1.142-.531.492.106.204.237c-1.102.366-2.212.732-3.316 1.097q-.474-.167-.953-.333zm-3.854-1.352q.418-1.01.835-2.024c1.56-.202 1.926.566 3.093 1.05q.167.256.34.513-.87.596-1.742 1.19l-1.415.092zm-2.847 5.907 2.07-3.646c1.376-.002 1.542.112 2.109.837.249.42.034.195-.515.289l-.128 1.256q1.081.166 2.157.335c-.422 1.05-.49.912-1.133 1.58-2.118.115-3.077-.29-4.56-.651m-2.397-5.086q1.807.546 3.619 1.087.098.215.202.43l-2.324 2.801-3.369-1.103q.938-1.605 1.872-3.215m-13.94-3.889.047-.428 2.018 1.552q.089.204.175.41c-4.201 3.232 2.222 13.776 9.532 6.946l3.142 1.258c-1.21 2.151-3.285 2.998-5.471 4.21-5.227.435-12.542-8.077-9.443-13.948m4.875 1.474q.04.487.078.976-.583-.437-1.161-.874-.133-.282-.262-.565zm7.193 6.112q-1.3 1.005-2.603 2.006c-5.117.537-7.191-2.997-7.358-7.342l.996-1.206.44-.033c2.578 2.026 4.856 5.115 8.354 6.138q.083.218.171.437m-4.959-20.967c-.466-.34-.495-.502-.733-1.071q.489-1.845.976-3.691l1.138-.995.732 1.07zm-.733 1.245q1.122-2.648 2.247-5.293l.46-.27c1.033 1.819 2.53 2.643 2.985 5.112l-3.38 3.524c-1.049-.766-1.78-1.766-2.312-3.073m4.27 4.4 2.855-2.767 1.413 2.879q-2.132-.058-4.269-.112m7.115-29.08c-1.35 2.874-3.143 4.826-4.218 7.604-.468-2.526 2.36-6.156 3.272-8.387q.216-.123.433-.249zm0-7.916c2.114-.654 3.535-1.852 5.051-3.19l.64 1.923c-.599.797-1.196 1.598-1.795 2.395l-3.897-1.128m7.115.145-.771.983-.652-.11.016-.156 1.292-1.174q.058.23.115.457m-1.122-6.199.225-.014.897 1.884q-.173.498-.34.994c-1.3-.68-1.249-1.486-.782-2.864m-.263 41.723 1.314.938c-.453-.199-.901-.396-1.352-.59q.015-.178.038-.348m-.022 1.439q.704.303 1.407.609l-.023.174c-1.003.698-2.012 1.397-3.017 2.095-.869-.385-.975-1.16-1.23-2.01l.023-.175zm-4.214-2.879 1.352.543c-.242.141-.48.282-.723.422q-.351.04-.7.077.032-.518.07-1.042m-.071-28.784c1.709.485 1.168.163 1.243 1.44-.787-.457-.84-.676-1.243-1.44m0 25.709.118-1.242c.663.459.89.733 1.305 1.439q-.715-.1-1.423-.197m2.846-17.973c-.534.687-.512.496-1.423.9q.311-.72.625-1.44zm0-5.787-.893.93c-.896-.507-.471-.305-.07-1.236l.534-.204q.218.255.429.51m-.114-2.45-1.31-.938c1.01.384.776.15 1.31.938m-2.732 26.407q.71.567 1.423 1.131c-.729-.019-1.116-.174-1.423-1.131m4.269-.054-.58.054-.497-.918-.346-.449q.384-.038.77-.072zm-.786-26.65-.637-.641c.626.436.21.01.637.642m.09 23.702-.727-1.506.308-1.237.18-.012.935 2.878zm-3.73 16.745.157.193-.51 1.895c-1.048-.417-2.12-1.497-2.337-2.878q1.347.394 2.69.79m-4.113 2.088 1.423 1.259c-.91-.398-.966-.381-1.423-1.259m2.457-12.757c.055.415.116.83.172 1.244l-1.206-1.44zm-1.407 6.729q-.526-1.303-1.05-2.607c1.242.478 2.217 1.9 2.846 2.878zm1.118-25.623c.117-.005.238-.008.354-.011q-.519.72-1.04 1.439c-.172-.355.036-.696.615-1.113q.033-.158.071-.315m-.745 12.37-.285.571-.818-.633-.32-.684 1.116-.122zm-9.961 12.085c2.853 1.852 7.696 3.568 8.538 7.196-3.306-1.568-6.529-4.391-8.538-7.196m7.395-1.39 1.143 1.39-2.846-1.439zm10.421 4.269-2.162-2.17 3.782-3.587.487 3.947zm2.107 2.405c.128-.313.251-.626.378-.939q.248-.015.502-.027l.543 1.439zm1.918-5.284q-.246-.719-.495-1.439.522.095 1.032.191-.266.624-.537 1.248m-1.918-48.463.014-.126 1.41-.344q-.495.72-.985 1.44zM58.403 93.394l-1.306-2.878c1.672.366 1.405 1.554 1.306 2.878m-3.486 1.44c-1.216-.844-1.994-2.518-2.09-4.318 2.497.59 2.362 1.57 2.847 3.843zm-1.471-7.51c-1.814-1.71.83-8.564 1.993-10.14.611-.774 1.386-.76 2.408-1.06l.673.175c-1.71 3.02-2.866 7.131-3.274 11.339q-.9-.159-1.8-.314m-2.656 23.341.87 1.46q-.387.904-.778 1.81l-.447.473c.635.09.777-.458 1.734-1.232 1.841 2.988 4.663 5.838 7.774 7.463l-1.7 2.979-5.138-3.304c-.59-1.087.223-2.335-.723-3-.854-.603-1.96.269-2.83.007l-2.416-2.211c.708-1.581 1.391-3.132 2.798-3.94zm-4.92-15.87c.18-1.415.487-2.878.835-4.262q.097-.007.194-.017l.742 4.28.387 2.236q1.686 4.657 3.377 9.315c-2.701-1.475-4.376-4.882-4.136-9.466-.649 1.48-.109 3.806.105 5.107-1.664-1.403-1.878-4.195-1.505-7.192m-2.468 1.478a5.2 5.2 0 0 1-.482-1.734c-.08-.684-.07-1.475.026-2.42q.12-.26.244-.516l1.1-1.087-.622 4.023zm99.08 14.392-2.846-1.095 2.762-.344q.04.72.084 1.439m-75.31 23.424c.247-.133.499-.266.746-.397-.283.477-.575.96-.86 1.437zm-21.46-49.33-1.213-.118c-1.506-.49-2.927-2.246-3.056-4.2 2.311.208 3.093 1.3 4.235 2.632q.019.842.035 1.686m-.167-.12c.165-3.105-2.212-5.044-5.298-4.96.529-4.366 4.33-6.596 7.72-8.062l.652-.048c-.568 5.477-.137 10.194-2.189 14.932-1.515 3.492-6.887 3.427-6.593 8.808q.01.22.035.452c.766 7.161 8.573 8.618 9.654 14.915-11.572 5.869 2.533 30.545 11.686 16.051 1.638.235 3.1.977 5.139.262.947-.523 1.135-.947 1.503-2.037l3.27 1.686.173.415c-3 2.319-5.112 5.501-8.33 7.68q.15-.444.307-.882l-.846-.151-.457.249c-.14.65-.277 1.305-.42 1.956 1.838 1.87 7.411-4.902 9.043-6.232-.924 3.22-3.203 4.875-4.468 7.821q.194.203.39.401c2.403-1.718 5.35-6.578 5.798-10.277l3.6.594c-4.513 6.087-16.103 19.47-22.194 23.042.922-2.905 2.404-5.123 3.147-7.509q-.219.014-.433.031-.195-.202-.391-.4c-1.481 2.913-3.927 4.955-4.363 8.883.31.48.64.738.972.999 7.247-1.206 19.342-19.371 25.125-24.33-1.564 15.667-9.982 18.113-17.282 27.606 6.633-3.301 10.658-11.723 16.336-16.403-.628 6.55-2.189 21.187-6.12 23.785q.324-.026.651-.048c4.404-2.733 4.663-13.971 6.13-19.718l.626-6.038q3.147-4.412 6.294-8.815l.456-.247c.704 2.203 3.89 4.594 7.343 3.952l2.473-1.036q3.113 1.159 6.218 2.321c.816 8.92.503 13.922-5.158 20.717 5.784-2.949 7.91-14.317 5.984-20.348 13.451 1.554 12.913-2.976 10.359-12.751q1.184.017 2.367.04c-.434-.654-1.615-.168-2.516-.67-.409-.263-.328-.214-.584-.601 3.201-3.6 10.9-.024 9.288 5.951 2.21-4.957-2.681-9.359-7.395-7.589 2.013-2.379 4.451-4.335 5.726-7.486q.229-.125.458-.248 5.534 5.8 11.071 11.599l.652-.047q.251-.34.499-.68l-10.549-12.494q.563-.258 1.132-.512c.609-.578 1.279-.769 1.95-.679l-.561-.28c5.658.568 12.875 5.268 18.775 3.753.545-.943.569-1.455.242-2.372 6.284.158 17.589-1.94 21.186-4.987-9.665 2.027-20.559 2.714-29.439 1.528q-3.935-.458-7.868-.918l-.438.032 2.116-3.795c6.488-.119 23.492-.283 26.931-4.34l-.757-1.015-2.968-.424c-.256.377-.291.736-.332 1.097q1.174.126 2.344.254c-5.097 1.281-19.294 3.984-23.931 2.406-.488-.589-.127-2.64-.106-4.118a5.4 5.4 0 0 0-.031-.795c6.662-1.987 11.609-6.456 13.637-13.207 1.16-3.86.391-8.938 2.897-11.345 1.601.14 1.924.812 3.099 1.27-.623-.862-1.509-1.34-2.62-1.734l-2.086 1.438c-1.908.736-3.905-1.19-7.138.312-2.626-2.24-4.11-5.785-7.657-7.14l-.367-.616c1.438-1.392 2.871-2.782 4.308-4.172-1.413 1.176-2.848 2.566-4.285 3.955a988 988 0 0 0-2.884-1.284q-.082-.21-.17-.416c3.284-2.322 6.202-3.184 9.943-2.445.176.342.36.686.539 1.03-.175.299-.329.38-.479.463-.418-.112-.841-.223-1.259-.337.543.319 1.108.42 1.671.521q.238-.234.475-.463l.071-.648c-.817-.727-1.066-1.249-2.668-1.302l.766-1.126c-1.837 1.257-5.557 1.592-7.384 2.685l4.217-3.309.502-.678-7.8 4.642c-1.665-.116-3.436-.892-4.334-1.822l-.435.032q4.634-3.123 9.26-6.247l-.148-.633a17762 17762 0 0 0-10.538 6.13l-3.361-.824.311-3.019 24.134-18.904q.215-.017.434-.032a74 74 0 0 1-.345-.832c-.896-.426-4.568 2.546-5.955 3.437-5.342 3.42-10.067 7.675-15.324 10.763 2.17-2.75 6.144-5.487 6.798-9.493l-1.064-.135q-.822.702-1.652 1.406.903-.387 1.802-.775c-1.164 3.523-6.435 9.827-9.403 11.825l-.345-.831c1.933-3.25 3.838-7.61 2.943-11.777l-1.626-.951q-.866.066-1.735.129c1.112.439 1.867.547 2.684 1.086.524 4.04-1.471 6.77-2.543 10.035q-.23.122-.457.249c-.718-1.32-.672-1.958-2.141-2.199q-.066-.422-.128-.847.5-.679 1.003-1.357l.695-.48c.235.439.245.284.321 1.046.254-.374.29-.734.326-1.095l-.82-.366q-1.089 1.15-2.174 2.3c-1.821-1.213-3.818-2.486-6.37-2.954 1.443-3 5.845-7.815 3.57-11.61-2.769-4.616-12.233.706-15.698 4.367-.464.493-.824.957-1.042 1.363.221-.179.579-.46 1.042-.803 3.42-2.546 12.528-8.634 14.501-3.768 2.07 2.717-1.895 7.943-2.978 10.067-3.689-.373-7.549-.726-11.517-.647-4.008.081-8.13.6-12.303 1.974-2.017.665-10.6 5.794-10.927 5.73l-3.916-3.78-8.187-4.104q-.023.214-.043.431-.241.232-.479.464c3.496 2.952 6.996 5.906 10.49 8.86l-1.603.974c-4.315-3.263-7.29-5.245-13.713-6.91l-1.083.08c3.752 2.577 7.527 4.94 11.301 7.301l.757 1.015c-2.695 1.136-3.834 3.485-6.112 4.946-3.556-1.696-6.847-3.228-11.156-4.53-.1.293-.205.586-.305.88l8.075 5.184.433-.031q-.696.478-1.389.958c-.646 2.16-1.906 4.663-2.954 7.71-4.023 3.268-9.24 3.072-10.049 9.732-1.283.352-2.195.462-3.365 1.318l-.089.863c.734 1.03 7.272 3.788 8.835 4.058zm47.744-46.043.595.109-.8-.099-.41.02c.629-1.174 2.484-1.463 4.27-1.331q-.061.421-.126.842-1.743.09-3.487.177zm2.493 1.548 1.679-.551c.724-1.203 1.137-2.477.767-3.646-1.724-.34-2.72.08-4.339.757q-.44.719-.875 1.437l-.34.554c.112.125.22.235.34.333.545.452 1.206.608 2.421.508.33.566-.051.315-.654.475zm41.388 12.953-1.804.337q.558-.037 1.111-.078l1.267.544-1.923 3.514c.988-1.164 1.974-1.991 2.392-3.759zm-10.342 56.129c-.45-.792-.939-1.317-1.423-1.439.433.406.931.882 1.423 1.439m-5.692 17.27q-.712.415-1.423.823.546-.052 1.093-.102.168-.361.33-.721m5.692-17.27c1.445 1.632 2.533 4.753 2.219 7.196 1.64-3.542-.232-5.751-2.219-7.196"/></symbol><symbol id="flru" viewBox="156 158 298 251" fill="currentColor"><path fill="currentColor" fill-rule="evenodd" clip-rule="evenodd" d="M289.705 170.809C289.493 168.604 288.966 166.44 288.139 164.383C287.621 163.06 286.791 161.881 285.718 160.942C284.834 160.247 283.737 159.874 282.609 159.885H171.495C167.558 159.766 163.716 161.095 160.705 163.616C157.783 166.104 156.322 170.16 156.322 175.784V400.541C156.291 401.869 156.743 403.164 157.595 404.189C158.733 405.401 160.173 406.295 161.769 406.78C164.324 407.604 166.963 408.146 169.637 408.397C173.846 408.825 178.075 409.019 182.305 408.977C185.946 409.032 189.586 408.838 193.2 408.397C195.872 408.13 198.509 407.589 201.068 406.78C202.679 406.328 204.127 405.429 205.242 404.189C206.026 403.134 206.437 401.851 206.411 400.541V308.963H277.558C278.686 308.975 279.784 308.602 280.668 307.906C281.754 306.939 282.585 305.722 283.089 304.361C283.892 302.333 284.418 300.206 284.654 298.039C285.004 294.859 285.164 291.662 285.134 288.463C285.161 284.94 285.001 281.418 284.654 277.912C284.445 275.774 283.917 273.678 283.089 271.694C282.573 270.422 281.74 269.302 280.668 268.439C279.759 267.802 278.67 267.468 277.558 267.486H206.39V201.176H282.588C283.73 201.186 284.836 200.78 285.698 200.036C286.742 199.073 287.567 197.9 288.118 196.595C288.946 194.61 289.474 192.515 289.684 190.377C290.032 187.162 290.192 183.93 290.164 180.696C290.202 177.395 290.048 174.093 289.705 170.809Z"/><path fill="currentColor" fill-rule="evenodd" clip-rule="evenodd" d="M453.173 378C452.918 375.833 452.348 373.7 451.475 371.651C450.91 370.297 449.914 369.101 448.597 368.195C447.433 367.481 446.025 367.108 444.587 367.133H378.905V166.1C378.912 164.83 378.39 163.599 377.429 162.623C376.092 161.424 374.389 160.56 372.509 160.125C369.524 159.366 366.459 158.85 363.358 158.585C358.561 158.167 353.74 157.979 348.918 158.023C344.472 157.98 340.027 158.168 335.609 158.585C332.458 158.844 329.344 159.36 326.31 160.125C324.428 160.555 322.724 161.42 321.39 162.623C320.43 163.599 319.907 164.83 319.914 166.1V393.01C319.914 398.651 321.612 402.71 325.056 405.229C328.605 407.761 333.134 409.096 337.774 408.976H444.587C446.044 408.995 447.462 408.583 448.597 407.811C449.932 406.799 450.925 405.506 451.475 404.064C452.329 401.945 452.898 399.753 453.173 397.527C453.96 391.063 453.96 384.547 453.173 378.083V378Z"/></symbol></svg>
